<svg width="800" height="800" viewBox="0 0 800 800" fill="none" xmlns="http://www.w3.org/2000/svg">
  <!-- 洋葱切面纹理 -->
  <g opacity="0.2">
    <circle cx="400" cy="400" r="300" stroke="#8C9E7E" stroke-width="1" fill="none"/>
    <circle cx="400" cy="400" r="280" stroke="#8C9E7E" stroke-width="1" fill="none"/>
    <circle cx="400" cy="400" r="260" stroke="#8C9E7E" stroke-width="1" fill="none"/>
    <circle cx="400" cy="400" r="240" stroke="#8C9E7E" stroke-width="1" fill="none"/>
    <circle cx="400" cy="400" r="220" stroke="#8C9E7E" stroke-width="1" fill="none"/>
    <circle cx="400" cy="400" r="200" stroke="#8C9E7E" stroke-width="1" fill="none"/>
    <circle cx="400" cy="400" r="180" stroke="#8C9E7E" stroke-width="1" fill="none"/>
    <circle cx="400" cy="400" r="160" stroke="#8C9E7E" stroke-width="1" fill="none"/>
    <circle cx="400" cy="400" r="140" stroke="#8C9E7E" stroke-width="1" fill="none"/>
    <circle cx="400" cy="400" r="120" stroke="#8C9E7E" stroke-width="1" fill="none"/>
    <circle cx="400" cy="400" r="100" stroke="#8C9E7E" stroke-width="1" fill="none"/>
  </g>
  
  <!-- 谷物排列纹理 -->
  <g opacity="0.15">
    <circle cx="200" cy="200" r="5" fill="#D4A57C"/>
    <circle cx="220" cy="200" r="5" fill="#D4A57C"/>
    <circle cx="240" cy="200" r="5" fill="#D4A57C"/>
    <circle cx="260" cy="200" r="5" fill="#D4A57C"/>
    <circle cx="280" cy="200" r="5" fill="#D4A57C"/>
    
    <circle cx="210" cy="220" r="5" fill="#D4A57C"/>
    <circle cx="230" cy="220" r="5" fill="#D4A57C"/>
    <circle cx="250" cy="220" r="5" fill="#D4A57C"/>
    <circle cx="270" cy="220" r="5" fill="#D4A57C"/>
    <circle cx="290" cy="220" r="5" fill="#D4A57C"/>
    
    <circle cx="200" cy="240" r="5" fill="#D4A57C"/>
    <circle cx="220" cy="240" r="5" fill="#D4A57C"/>
    <circle cx="240" cy="240" r="5" fill="#D4A57C"/>
    <circle cx="260" cy="240" r="5" fill="#D4A57C"/>
    <circle cx="280" cy="240" r="5" fill="#D4A57C"/>
    
    <circle cx="500" cy="600" r="5" fill="#D4A57C"/>
    <circle cx="520" cy="600" r="5" fill="#D4A57C"/>
    <circle cx="540" cy="600" r="5" fill="#D4A57C"/>
    <circle cx="560" cy="600" r="5" fill="#D4A57C"/>
    <circle cx="580" cy="600" r="5" fill="#D4A57C"/>
    
    <circle cx="510" cy="620" r="5" fill="#D4A57C"/>
    <circle cx="530" cy="620" r="5" fill="#D4A57C"/>
    <circle cx="550" cy="620" r="5" fill="#D4A57C"/>
    <circle cx="570" cy="620" r="5" fill="#D4A57C"/>
    <circle cx="590" cy="620" r="5" fill="#D4A57C"/>
    
    <circle cx="500" cy="640" r="5" fill="#D4A57C"/>
    <circle cx="520" cy="640" r="5" fill="#D4A57C"/>
    <circle cx="540" cy="640" r="5" fill="#D4A57C"/>
    <circle cx="560" cy="640" r="5" fill="#D4A57C"/>
    <circle cx="580" cy="640" r="5" fill="#D4A57C"/>
  </g>
  
  <!-- 番茄切面纹理 -->
  <g opacity="0.1">
    <path d="M600,400 A100,100 0 1,1 600,399.9" stroke="#B3423A" stroke-width="1" fill="none"/>
    <circle cx="650" cy="350" r="15" stroke="#B3423A" stroke-width="1" fill="none"/>
    <circle cx="620" cy="380" r="10" stroke="#B3423A" stroke-width="1" fill="none"/>
    <circle cx="660" cy="390" r="12" stroke="#B3423A" stroke-width="1" fill="none"/>
    <circle cx="630" cy="410" r="8" stroke="#B3423A" stroke-width="1" fill="none"/>
    <circle cx="680" cy="370" r="7" stroke="#B3423A" stroke-width="1" fill="none"/>
  </g>
</svg> 